<mxfile host="Electron" modified="2024-07-04T18:09:42.418Z" agent="Mozilla/5.0 (Windows NT 10.0; Win64; x64) AppleWebKit/537.36 (KHTML, like Gecko) draw.io/24.6.4 Chrome/124.0.6367.207 Electron/30.0.6 Safari/537.36" etag="WCY4UJU3uAo-Biiku-zq" version="24.6.4" type="device">
  <diagram name="Page-1" id="edf60f1a-56cd-e834-aa8a-f176f3a09ee4">
    <mxGraphModel dx="945" dy="513" grid="1" gridSize="10" guides="1" tooltips="1" connect="1" arrows="1" fold="1" page="1" pageScale="1" pageWidth="1100" pageHeight="850" background="none" math="0" shadow="0">
      <root>
        <mxCell id="0" />
        <mxCell id="1" parent="0" />
        <mxCell id="60e70716793133e9-31" style="edgeStyle=orthogonalEdgeStyle;rounded=0;html=1;labelBackgroundColor=none;startSize=5;endArrow=classicThin;endFill=1;endSize=5;jettySize=auto;orthogonalLoop=1;strokeWidth=1;fontFamily=Verdana;fontSize=8" parent="1" source="60e70716793133e9-2" edge="1">
          <mxGeometry relative="1" as="geometry">
            <mxPoint x="250" y="220" as="targetPoint" />
          </mxGeometry>
        </mxCell>
        <mxCell id="60e70716793133e9-2" value="Upload image from storage,&amp;nbsp; pinterest or instagram link" style="shape=trapezoid;whiteSpace=wrap;html=1;rounded=0;shadow=1;labelBackgroundColor=none;strokeWidth=1;fontFamily=Verdana;fontSize=8;align=center;flipV=1;size=0;" parent="1" vertex="1">
          <mxGeometry x="100" y="120" width="120" height="60" as="geometry" />
        </mxCell>
        <mxCell id="60e70716793133e9-32" style="edgeStyle=orthogonalEdgeStyle;rounded=0;html=1;labelBackgroundColor=none;startSize=5;endArrow=classicThin;endFill=1;endSize=5;jettySize=auto;orthogonalLoop=1;strokeWidth=1;fontFamily=Verdana;fontSize=8" parent="1" source="60e70716793133e9-4" edge="1">
          <mxGeometry relative="1" as="geometry">
            <mxPoint x="250" y="220" as="targetPoint" />
          </mxGeometry>
        </mxCell>
        <mxCell id="60e70716793133e9-4" value="Upload image through in built camera" style="rounded=0;whiteSpace=wrap;html=1;shadow=1;labelBackgroundColor=none;strokeWidth=1;fontFamily=Verdana;fontSize=8;align=center;" parent="1" vertex="1">
          <mxGeometry x="290" y="120" width="100" height="60" as="geometry" />
        </mxCell>
        <mxCell id="llpVTtaSS9aVlyq3jY13-15" value="" style="edgeStyle=orthogonalEdgeStyle;rounded=0;orthogonalLoop=1;jettySize=auto;html=1;" edge="1" parent="1" source="60e70716793133e9-7" target="60e70716793133e9-8">
          <mxGeometry relative="1" as="geometry" />
        </mxCell>
        <mxCell id="llpVTtaSS9aVlyq3jY13-18" value="&lt;font style=&quot;font-size: 11px;&quot;&gt;No&lt;/font&gt;" style="edgeLabel;html=1;align=center;verticalAlign=middle;resizable=0;points=[];" vertex="1" connectable="0" parent="llpVTtaSS9aVlyq3jY13-15">
          <mxGeometry x="-0.1292" y="-2" relative="1" as="geometry">
            <mxPoint y="-2" as="offset" />
          </mxGeometry>
        </mxCell>
        <mxCell id="llpVTtaSS9aVlyq3jY13-21" value="" style="edgeStyle=orthogonalEdgeStyle;rounded=0;orthogonalLoop=1;jettySize=auto;html=1;" edge="1" parent="1" source="60e70716793133e9-7" target="60e70716793133e9-11">
          <mxGeometry relative="1" as="geometry" />
        </mxCell>
        <mxCell id="llpVTtaSS9aVlyq3jY13-22" value="&lt;font style=&quot;font-size: 11px;&quot;&gt;Yes&lt;/font&gt;" style="edgeLabel;html=1;align=center;verticalAlign=middle;resizable=0;points=[];" vertex="1" connectable="0" parent="llpVTtaSS9aVlyq3jY13-21">
          <mxGeometry x="-0.4363" y="1" relative="1" as="geometry">
            <mxPoint as="offset" />
          </mxGeometry>
        </mxCell>
        <mxCell id="60e70716793133e9-7" value="&lt;font style=&quot;font-size: 6px;&quot;&gt;Image validated successfully&amp;nbsp;&lt;/font&gt;" style="rhombus;whiteSpace=wrap;html=1;rounded=0;shadow=1;labelBackgroundColor=none;strokeWidth=1;fontFamily=Verdana;fontSize=8;align=center;" parent="1" vertex="1">
          <mxGeometry x="200" y="330" width="100" height="60" as="geometry" />
        </mxCell>
        <mxCell id="60e70716793133e9-8" value="Display error why image invalid" style="rounded=1;whiteSpace=wrap;html=1;shadow=1;labelBackgroundColor=none;strokeWidth=1;fontFamily=Verdana;fontSize=8;align=center;" parent="1" vertex="1">
          <mxGeometry x="370" y="300" width="90" height="40" as="geometry" />
        </mxCell>
        <mxCell id="60e70716793133e9-10" value="Display results on UI image mapping" style="whiteSpace=wrap;html=1;rounded=0;shadow=1;labelBackgroundColor=none;strokeWidth=1;fontFamily=Verdana;fontSize=8;align=center;" parent="1" vertex="1">
          <mxGeometry x="570" y="130" width="120" height="40" as="geometry" />
        </mxCell>
        <mxCell id="llpVTtaSS9aVlyq3jY13-20" value="" style="edgeStyle=orthogonalEdgeStyle;rounded=0;orthogonalLoop=1;jettySize=auto;html=1;" edge="1" parent="1" source="60e70716793133e9-11" target="llpVTtaSS9aVlyq3jY13-19">
          <mxGeometry relative="1" as="geometry" />
        </mxCell>
        <mxCell id="60e70716793133e9-11" value="Image pre-processing" style="whiteSpace=wrap;html=1;rounded=0;shadow=1;labelBackgroundColor=none;strokeWidth=1;fontFamily=Verdana;fontSize=8;align=center;spacing=6;" parent="1" vertex="1">
          <mxGeometry x="190" y="450" width="120" height="40" as="geometry" />
        </mxCell>
        <mxCell id="llpVTtaSS9aVlyq3jY13-31" value="" style="edgeStyle=orthogonalEdgeStyle;rounded=0;orthogonalLoop=1;jettySize=auto;html=1;" edge="1" parent="1" source="60e70716793133e9-15" target="60e70716793133e9-17">
          <mxGeometry relative="1" as="geometry" />
        </mxCell>
        <mxCell id="60e70716793133e9-15" value="Object detection" style="whiteSpace=wrap;html=1;rounded=0;shadow=1;labelBackgroundColor=none;strokeWidth=1;fontFamily=Verdana;fontSize=8;align=center;" parent="1" vertex="1">
          <mxGeometry x="190" y="700" width="120" height="40" as="geometry" />
        </mxCell>
        <mxCell id="llpVTtaSS9aVlyq3jY13-33" style="edgeStyle=orthogonalEdgeStyle;rounded=0;orthogonalLoop=1;jettySize=auto;html=1;entryX=0.5;entryY=1;entryDx=0;entryDy=0;" edge="1" parent="1" source="60e70716793133e9-17" target="60e70716793133e9-8">
          <mxGeometry relative="1" as="geometry" />
        </mxCell>
        <mxCell id="llpVTtaSS9aVlyq3jY13-34" value="&lt;font style=&quot;font-size: 12px;&quot;&gt;No&lt;/font&gt;" style="edgeLabel;html=1;align=center;verticalAlign=middle;resizable=0;points=[];" vertex="1" connectable="0" parent="llpVTtaSS9aVlyq3jY13-33">
          <mxGeometry x="-0.8577" y="-2" relative="1" as="geometry">
            <mxPoint as="offset" />
          </mxGeometry>
        </mxCell>
        <mxCell id="llpVTtaSS9aVlyq3jY13-35" value="" style="edgeStyle=orthogonalEdgeStyle;rounded=0;orthogonalLoop=1;jettySize=auto;html=1;" edge="1" parent="1" source="60e70716793133e9-17" target="60e70716793133e9-18">
          <mxGeometry relative="1" as="geometry" />
        </mxCell>
        <mxCell id="llpVTtaSS9aVlyq3jY13-36" value="&lt;font style=&quot;font-size: 12px;&quot;&gt;Yes&lt;/font&gt;" style="edgeLabel;html=1;align=center;verticalAlign=middle;resizable=0;points=[];" vertex="1" connectable="0" parent="llpVTtaSS9aVlyq3jY13-35">
          <mxGeometry x="-0.5578" y="1" relative="1" as="geometry">
            <mxPoint as="offset" />
          </mxGeometry>
        </mxCell>
        <mxCell id="60e70716793133e9-17" value="Machine learning model isolates clothes" style="rhombus;whiteSpace=wrap;html=1;rounded=0;shadow=1;labelBackgroundColor=none;strokeWidth=1;fontFamily=Verdana;fontSize=8;align=center;" parent="1" vertex="1">
          <mxGeometry x="185" y="800" width="130" height="70" as="geometry" />
        </mxCell>
        <mxCell id="llpVTtaSS9aVlyq3jY13-39" value="" style="edgeStyle=orthogonalEdgeStyle;rounded=0;orthogonalLoop=1;jettySize=auto;html=1;" edge="1" parent="1" source="60e70716793133e9-18" target="llpVTtaSS9aVlyq3jY13-37">
          <mxGeometry relative="1" as="geometry" />
        </mxCell>
        <mxCell id="60e70716793133e9-18" value="Extract individual clothes" style="whiteSpace=wrap;html=1;rounded=0;shadow=1;labelBackgroundColor=none;strokeWidth=1;fontFamily=Verdana;fontSize=8;align=center;" parent="1" vertex="1">
          <mxGeometry x="190" y="915" width="120" height="40" as="geometry" />
        </mxCell>
        <mxCell id="60e70716793133e9-57" style="edgeStyle=orthogonalEdgeStyle;rounded=0;html=1;labelBackgroundColor=none;startSize=5;endArrow=classicThin;endFill=1;endSize=5;jettySize=auto;orthogonalLoop=1;strokeWidth=1;fontFamily=Verdana;fontSize=8" parent="1" edge="1">
          <mxGeometry relative="1" as="geometry">
            <mxPoint x="340" y="1240" as="sourcePoint" />
            <mxPoint x="340" y="1290" as="targetPoint" />
          </mxGeometry>
        </mxCell>
        <mxCell id="llpVTtaSS9aVlyq3jY13-1" value="&lt;font style=&quot;font-size: 9px;&quot;&gt;Upload image to backend server&lt;/font&gt;" style="rounded=0;whiteSpace=wrap;html=1;" vertex="1" parent="1">
          <mxGeometry x="190" y="220" width="120" height="60" as="geometry" />
        </mxCell>
        <mxCell id="llpVTtaSS9aVlyq3jY13-3" value="" style="endArrow=classic;html=1;rounded=0;exitX=0.5;exitY=1;exitDx=0;exitDy=0;entryX=0.5;entryY=0;entryDx=0;entryDy=0;" edge="1" parent="1" source="llpVTtaSS9aVlyq3jY13-1" target="60e70716793133e9-7">
          <mxGeometry width="50" height="50" relative="1" as="geometry">
            <mxPoint x="460" y="290" as="sourcePoint" />
            <mxPoint x="510" y="240" as="targetPoint" />
          </mxGeometry>
        </mxCell>
        <mxCell id="llpVTtaSS9aVlyq3jY13-28" value="" style="edgeStyle=orthogonalEdgeStyle;rounded=0;orthogonalLoop=1;jettySize=auto;html=1;" edge="1" parent="1" source="llpVTtaSS9aVlyq3jY13-19" target="60e70716793133e9-15">
          <mxGeometry relative="1" as="geometry" />
        </mxCell>
        <mxCell id="llpVTtaSS9aVlyq3jY13-30" value="&lt;font style=&quot;font-size: 11px;&quot;&gt;Yes&lt;/font&gt;" style="edgeLabel;html=1;align=center;verticalAlign=middle;resizable=0;points=[];" vertex="1" connectable="0" parent="llpVTtaSS9aVlyq3jY13-28">
          <mxGeometry x="-0.1639" relative="1" as="geometry">
            <mxPoint as="offset" />
          </mxGeometry>
        </mxCell>
        <mxCell id="llpVTtaSS9aVlyq3jY13-75" style="edgeStyle=orthogonalEdgeStyle;rounded=0;orthogonalLoop=1;jettySize=auto;html=1;entryX=0.25;entryY=1;entryDx=0;entryDy=0;" edge="1" parent="1" source="llpVTtaSS9aVlyq3jY13-19" target="60e70716793133e9-8">
          <mxGeometry relative="1" as="geometry" />
        </mxCell>
        <mxCell id="llpVTtaSS9aVlyq3jY13-76" value="No" style="edgeLabel;html=1;align=center;verticalAlign=middle;resizable=0;points=[];" vertex="1" connectable="0" parent="llpVTtaSS9aVlyq3jY13-75">
          <mxGeometry x="-0.768" y="-2" relative="1" as="geometry">
            <mxPoint as="offset" />
          </mxGeometry>
        </mxCell>
        <mxCell id="llpVTtaSS9aVlyq3jY13-19" value="&lt;font style=&quot;font-size: 6px;&quot;&gt;Pre-process the image for object detection&lt;br&gt;&lt;/font&gt;" style="rhombus;whiteSpace=wrap;html=1;" vertex="1" parent="1">
          <mxGeometry x="197.5" y="560" width="105" height="80" as="geometry" />
        </mxCell>
        <mxCell id="llpVTtaSS9aVlyq3jY13-73" style="edgeStyle=orthogonalEdgeStyle;rounded=0;orthogonalLoop=1;jettySize=auto;html=1;exitX=0.5;exitY=1;exitDx=0;exitDy=0;exitPerimeter=0;entryX=0.5;entryY=0;entryDx=0;entryDy=0;" edge="1" parent="1" source="llpVTtaSS9aVlyq3jY13-25" target="60e70716793133e9-2">
          <mxGeometry relative="1" as="geometry">
            <Array as="points">
              <mxPoint x="250" y="90" />
              <mxPoint x="160" y="90" />
            </Array>
          </mxGeometry>
        </mxCell>
        <mxCell id="llpVTtaSS9aVlyq3jY13-74" style="edgeStyle=orthogonalEdgeStyle;rounded=0;orthogonalLoop=1;jettySize=auto;html=1;entryX=0.5;entryY=0;entryDx=0;entryDy=0;" edge="1" parent="1" source="llpVTtaSS9aVlyq3jY13-25" target="60e70716793133e9-4">
          <mxGeometry relative="1" as="geometry">
            <Array as="points">
              <mxPoint x="250" y="90" />
              <mxPoint x="340" y="90" />
            </Array>
          </mxGeometry>
        </mxCell>
        <mxCell id="llpVTtaSS9aVlyq3jY13-25" value="Start" style="strokeWidth=1;html=1;shape=mxgraph.flowchart.terminator;whiteSpace=wrap;rounded=0;shadow=1;labelBackgroundColor=none;fontFamily=Verdana;fontSize=8;align=center;" vertex="1" parent="1">
          <mxGeometry x="220" y="40" width="60" height="30" as="geometry" />
        </mxCell>
        <mxCell id="llpVTtaSS9aVlyq3jY13-42" value="" style="edgeStyle=orthogonalEdgeStyle;rounded=0;orthogonalLoop=1;jettySize=auto;html=1;" edge="1" parent="1" source="llpVTtaSS9aVlyq3jY13-37" target="llpVTtaSS9aVlyq3jY13-41">
          <mxGeometry relative="1" as="geometry" />
        </mxCell>
        <mxCell id="llpVTtaSS9aVlyq3jY13-45" value="&lt;font style=&quot;font-size: 11px;&quot;&gt;Yes&lt;/font&gt;" style="edgeLabel;html=1;align=center;verticalAlign=middle;resizable=0;points=[];" vertex="1" connectable="0" parent="llpVTtaSS9aVlyq3jY13-42">
          <mxGeometry x="-0.0719" y="-1" relative="1" as="geometry">
            <mxPoint as="offset" />
          </mxGeometry>
        </mxCell>
        <mxCell id="llpVTtaSS9aVlyq3jY13-77" style="edgeStyle=orthogonalEdgeStyle;rounded=0;orthogonalLoop=1;jettySize=auto;html=1;entryX=0.75;entryY=1;entryDx=0;entryDy=0;" edge="1" parent="1" source="llpVTtaSS9aVlyq3jY13-37" target="60e70716793133e9-8">
          <mxGeometry relative="1" as="geometry" />
        </mxCell>
        <mxCell id="llpVTtaSS9aVlyq3jY13-78" value="No" style="edgeLabel;html=1;align=center;verticalAlign=middle;resizable=0;points=[];" vertex="1" connectable="0" parent="llpVTtaSS9aVlyq3jY13-77">
          <mxGeometry x="-0.8736" relative="1" as="geometry">
            <mxPoint as="offset" />
          </mxGeometry>
        </mxCell>
        <mxCell id="llpVTtaSS9aVlyq3jY13-37" value="Get details of clothing item" style="rhombus;whiteSpace=wrap;html=1;rounded=0;shadow=1;labelBackgroundColor=none;strokeWidth=1;fontFamily=Verdana;fontSize=8;align=center;" vertex="1" parent="1">
          <mxGeometry x="390" y="900" width="82.5" height="70" as="geometry" />
        </mxCell>
        <mxCell id="llpVTtaSS9aVlyq3jY13-48" value="" style="edgeStyle=orthogonalEdgeStyle;rounded=0;orthogonalLoop=1;jettySize=auto;html=1;" edge="1" parent="1" source="llpVTtaSS9aVlyq3jY13-41" target="llpVTtaSS9aVlyq3jY13-47">
          <mxGeometry relative="1" as="geometry" />
        </mxCell>
        <mxCell id="llpVTtaSS9aVlyq3jY13-41" value="Create API query on items" style="whiteSpace=wrap;html=1;rounded=0;shadow=1;labelBackgroundColor=none;strokeWidth=1;fontFamily=Verdana;fontSize=8;align=center;" vertex="1" parent="1">
          <mxGeometry x="570" y="915" width="120" height="40" as="geometry" />
        </mxCell>
        <mxCell id="llpVTtaSS9aVlyq3jY13-49" style="edgeStyle=orthogonalEdgeStyle;rounded=0;orthogonalLoop=1;jettySize=auto;html=1;entryX=1;entryY=1;entryDx=0;entryDy=0;" edge="1" parent="1" source="llpVTtaSS9aVlyq3jY13-47" target="60e70716793133e9-8">
          <mxGeometry relative="1" as="geometry" />
        </mxCell>
        <mxCell id="llpVTtaSS9aVlyq3jY13-50" value="No" style="edgeLabel;html=1;align=center;verticalAlign=middle;resizable=0;points=[];" vertex="1" connectable="0" parent="llpVTtaSS9aVlyq3jY13-49">
          <mxGeometry x="-0.7015" y="4" relative="1" as="geometry">
            <mxPoint as="offset" />
          </mxGeometry>
        </mxCell>
        <mxCell id="llpVTtaSS9aVlyq3jY13-52" value="" style="edgeStyle=orthogonalEdgeStyle;rounded=0;orthogonalLoop=1;jettySize=auto;html=1;" edge="1" parent="1" source="llpVTtaSS9aVlyq3jY13-47" target="llpVTtaSS9aVlyq3jY13-51">
          <mxGeometry relative="1" as="geometry" />
        </mxCell>
        <mxCell id="llpVTtaSS9aVlyq3jY13-53" value="Yes" style="edgeLabel;html=1;align=center;verticalAlign=middle;resizable=0;points=[];" vertex="1" connectable="0" parent="llpVTtaSS9aVlyq3jY13-52">
          <mxGeometry x="-0.1665" y="2" relative="1" as="geometry">
            <mxPoint as="offset" />
          </mxGeometry>
        </mxCell>
        <mxCell id="llpVTtaSS9aVlyq3jY13-47" value="Formatted for Goggle search API&amp;nbsp;" style="rhombus;whiteSpace=wrap;html=1;rounded=0;shadow=1;labelBackgroundColor=none;strokeWidth=1;fontFamily=Verdana;fontSize=8;align=center;" vertex="1" parent="1">
          <mxGeometry x="575" y="790" width="110" height="60" as="geometry" />
        </mxCell>
        <mxCell id="llpVTtaSS9aVlyq3jY13-55" value="" style="edgeStyle=orthogonalEdgeStyle;rounded=0;orthogonalLoop=1;jettySize=auto;html=1;" edge="1" parent="1" source="llpVTtaSS9aVlyq3jY13-51" target="llpVTtaSS9aVlyq3jY13-54">
          <mxGeometry relative="1" as="geometry" />
        </mxCell>
        <mxCell id="llpVTtaSS9aVlyq3jY13-51" value="Request to Google API" style="whiteSpace=wrap;html=1;rounded=0;shadow=1;labelBackgroundColor=none;strokeWidth=1;fontFamily=Verdana;fontSize=8;align=center;" vertex="1" parent="1">
          <mxGeometry x="570" y="670" width="120" height="40" as="geometry" />
        </mxCell>
        <mxCell id="llpVTtaSS9aVlyq3jY13-56" style="edgeStyle=orthogonalEdgeStyle;rounded=0;orthogonalLoop=1;jettySize=auto;html=1;entryX=1.01;entryY=0.367;entryDx=0;entryDy=0;exitX=0;exitY=0.5;exitDx=0;exitDy=0;entryPerimeter=0;" edge="1" parent="1" source="llpVTtaSS9aVlyq3jY13-54" target="60e70716793133e9-8">
          <mxGeometry relative="1" as="geometry">
            <mxPoint x="582.5" y="580" as="sourcePoint" />
            <mxPoint x="422.5" y="400" as="targetPoint" />
            <Array as="points">
              <mxPoint x="520" y="565" />
              <mxPoint x="520" y="305" />
            </Array>
          </mxGeometry>
        </mxCell>
        <mxCell id="llpVTtaSS9aVlyq3jY13-57" value="No" style="edgeLabel;html=1;align=center;verticalAlign=middle;resizable=0;points=[];" vertex="1" connectable="0" parent="llpVTtaSS9aVlyq3jY13-56">
          <mxGeometry x="-0.8988" y="-1" relative="1" as="geometry">
            <mxPoint as="offset" />
          </mxGeometry>
        </mxCell>
        <mxCell id="llpVTtaSS9aVlyq3jY13-60" value="" style="edgeStyle=orthogonalEdgeStyle;rounded=0;orthogonalLoop=1;jettySize=auto;html=1;" edge="1" parent="1" source="llpVTtaSS9aVlyq3jY13-54" target="llpVTtaSS9aVlyq3jY13-59">
          <mxGeometry relative="1" as="geometry" />
        </mxCell>
        <mxCell id="llpVTtaSS9aVlyq3jY13-61" value="Yes" style="edgeLabel;html=1;align=center;verticalAlign=middle;resizable=0;points=[];" vertex="1" connectable="0" parent="llpVTtaSS9aVlyq3jY13-60">
          <mxGeometry x="-0.0446" y="2" relative="1" as="geometry">
            <mxPoint as="offset" />
          </mxGeometry>
        </mxCell>
        <mxCell id="llpVTtaSS9aVlyq3jY13-54" value="Successful request" style="rhombus;whiteSpace=wrap;html=1;rounded=0;shadow=1;labelBackgroundColor=none;strokeWidth=1;fontFamily=Verdana;fontSize=8;align=center;" vertex="1" parent="1">
          <mxGeometry x="580" y="530" width="100" height="70" as="geometry" />
        </mxCell>
        <mxCell id="llpVTtaSS9aVlyq3jY13-63" value="" style="edgeStyle=orthogonalEdgeStyle;rounded=0;orthogonalLoop=1;jettySize=auto;html=1;" edge="1" parent="1" source="llpVTtaSS9aVlyq3jY13-59" target="llpVTtaSS9aVlyq3jY13-62">
          <mxGeometry relative="1" as="geometry" />
        </mxCell>
        <mxCell id="llpVTtaSS9aVlyq3jY13-59" value="Process API response" style="whiteSpace=wrap;html=1;rounded=0;shadow=1;labelBackgroundColor=none;strokeWidth=1;fontFamily=Verdana;fontSize=8;align=center;" vertex="1" parent="1">
          <mxGeometry x="570" y="410" width="120" height="40" as="geometry" />
        </mxCell>
        <mxCell id="llpVTtaSS9aVlyq3jY13-64" style="edgeStyle=orthogonalEdgeStyle;rounded=0;orthogonalLoop=1;jettySize=auto;html=1;entryX=0.75;entryY=0;entryDx=0;entryDy=0;" edge="1" parent="1" source="llpVTtaSS9aVlyq3jY13-62" target="60e70716793133e9-8">
          <mxGeometry relative="1" as="geometry" />
        </mxCell>
        <mxCell id="llpVTtaSS9aVlyq3jY13-65" value="No" style="edgeLabel;html=1;align=center;verticalAlign=middle;resizable=0;points=[];" vertex="1" connectable="0" parent="llpVTtaSS9aVlyq3jY13-64">
          <mxGeometry x="-0.8669" y="-4" relative="1" as="geometry">
            <mxPoint x="1" as="offset" />
          </mxGeometry>
        </mxCell>
        <mxCell id="llpVTtaSS9aVlyq3jY13-66" value="" style="edgeStyle=orthogonalEdgeStyle;rounded=0;orthogonalLoop=1;jettySize=auto;html=1;" edge="1" parent="1" source="llpVTtaSS9aVlyq3jY13-62" target="60e70716793133e9-10">
          <mxGeometry relative="1" as="geometry" />
        </mxCell>
        <mxCell id="llpVTtaSS9aVlyq3jY13-67" value="Yes" style="edgeLabel;html=1;align=center;verticalAlign=middle;resizable=0;points=[];" vertex="1" connectable="0" parent="llpVTtaSS9aVlyq3jY13-66">
          <mxGeometry x="-0.2138" y="2" relative="1" as="geometry">
            <mxPoint as="offset" />
          </mxGeometry>
        </mxCell>
        <mxCell id="llpVTtaSS9aVlyq3jY13-62" value="&lt;font style=&quot;font-size: 8px;&quot;&gt;Response found links, images&lt;/font&gt;" style="rhombus;whiteSpace=wrap;html=1;" vertex="1" parent="1">
          <mxGeometry x="582.5" y="220" width="95" height="80" as="geometry" />
        </mxCell>
        <mxCell id="llpVTtaSS9aVlyq3jY13-69" value="End" style="strokeWidth=1;html=1;shape=mxgraph.flowchart.terminator;whiteSpace=wrap;rounded=0;shadow=1;labelBackgroundColor=none;fontFamily=Verdana;fontSize=8;align=center;" vertex="1" parent="1">
          <mxGeometry x="600" y="50" width="60" height="30" as="geometry" />
        </mxCell>
        <mxCell id="llpVTtaSS9aVlyq3jY13-70" style="edgeStyle=orthogonalEdgeStyle;rounded=0;orthogonalLoop=1;jettySize=auto;html=1;entryX=0.5;entryY=1;entryDx=0;entryDy=0;entryPerimeter=0;" edge="1" parent="1" source="60e70716793133e9-10" target="llpVTtaSS9aVlyq3jY13-69">
          <mxGeometry relative="1" as="geometry" />
        </mxCell>
        <mxCell id="llpVTtaSS9aVlyq3jY13-79" style="edgeStyle=orthogonalEdgeStyle;rounded=0;orthogonalLoop=1;jettySize=auto;html=1;entryX=1;entryY=0.5;entryDx=0;entryDy=0;entryPerimeter=0;" edge="1" parent="1" source="60e70716793133e9-8" target="llpVTtaSS9aVlyq3jY13-25">
          <mxGeometry relative="1" as="geometry">
            <Array as="points">
              <mxPoint x="415" y="55" />
            </Array>
          </mxGeometry>
        </mxCell>
      </root>
    </mxGraphModel>
  </diagram>
</mxfile>
